<?xml version="1.0" encoding="iso-8859-1"?>
<!-- Generator: Adobe Illustrator 22.0.1, SVG Export Plug-In . SVG Version: 6.00 Build 0)  -->
<svg xmlns="http://www.w3.org/2000/svg" xmlns:xlink="http://www.w3.org/1999/xlink" version="1.1" id="Layer_1" x="0px" y="0px" viewBox="0 0 48 48" style="enable-background:new 0 0 48 48;" xml:space="preserve" width="48px" height="48px">
<path style="fill:#673AB7;" d="M12,44c-1.657,0-3-1.343-3-3V7c0-1.657,1.343-3,3-3h16l11,11v26c0,1.657-1.343,3-3,3H12z"/>
<polygon style="fill:#5E35B1;" points="39,15 28.883,14.125 39,24.124 "/>
<path style="fill:#B39DDB;" d="M39,15h-8c-1.657,0-3-1.343-3-3V4L39,15z"/>
<rect x="22" y="23" style="fill:#F5F5F5;" width="10" height="2"/>
<rect x="22" y="28" style="fill:#F5F5F5;" width="10" height="2"/>
<rect x="22" y="33" style="fill:#F5F5F5;" width="10" height="2"/>
<circle style="fill:#F5F5F5;" cx="17.5" cy="24" r="1.5"/>
<circle style="fill:#F5F5F5;" cx="17.5" cy="29" r="1.5"/>
<circle style="fill:#F5F5F5;" cx="17.5" cy="34" r="1.5"/>
</svg>
