<?xml version="1.0" encoding="utf-8"?>
<!-- Generator: Adobe Illustrator 21.0.2, SVG Export Plug-In . SVG Version: 6.00 Build 0)  -->
<svg xmlns="http://www.w3.org/2000/svg" xmlns:xlink="http://www.w3.org/1999/xlink" version="1.1" id="Layer_1" x="0px" y="0px" viewBox="0 0 48 48" style="enable-background:new 0 0 48 48;" xml:space="preserve" width="48px" height="48px">
<g id="surface1">
	<path style="fill:#448AFF;" d="M4,11h40v16H4V11z"/>
	<path style="fill:#1565C0;" d="M42,41H24V27h20v12C44,40.1,43.1,41,42,41z"/>
	<path style="fill:#E0E0E0;" d="M24,41H6c-1.1,0-2-0.9-2-2V27h20V41z"/>
	<path style="fill:#9E9E9E;" d="M44,11H4V9c0-1.1,0.9-2,2-2h36c1.1,0,2,0.9,2,2V11z"/>
	<path style="fill:#FFFFFF;" d="M8,9c0,0.6-0.4,1-1,1S6,9.6,6,9s0.4-1,1-1S8,8.4,8,9z"/>
	<path style="fill:#FFFFFF;" d="M11,9c0,0.6-0.4,1-1,1S9,9.6,9,9s0.4-1,1-1S11,8.4,11,9z"/>
	<rect x="7" y="29" style="fill:#9E9E9E;" width="14" height="1"/>
	<rect x="7" y="32" style="fill:#9E9E9E;" width="14" height="1"/>
	<rect x="7" y="35" style="fill:#9E9E9E;" width="14" height="1"/>
	<rect x="7" y="38" style="fill:#9E9E9E;" width="9" height="1"/>
</g>
</svg>
