<?xml version="1.0" encoding="UTF-8" standalone="no"?>
<!-- Created with Inkscape (http://www.inkscape.org/) -->

<svg
   xmlns:dc="http://purl.org/dc/elements/1.1/"
   xmlns:cc="http://creativecommons.org/ns#"
   xmlns:rdf="http://www.w3.org/1999/02/22-rdf-syntax-ns#"
   xmlns:svg="http://www.w3.org/2000/svg"
   xmlns="http://www.w3.org/2000/svg"
   xmlns:xlink="http://www.w3.org/1999/xlink"
   xmlns:sodipodi="http://sodipodi.sourceforge.net/DTD/sodipodi-0.dtd"
   xmlns:inkscape="http://www.inkscape.org/namespaces/inkscape"
   width="164.72441"
   height="182"
   viewBox="0 0 43.58332 48.154182"
   version="1.1"
   id="svg216"
   inkscape:version="0.92.5 (2060ec1f9f, 2020-04-08)"
   sodipodi:docname="logo.svg">
  <defs
     id="defs210">
    <linearGradient
       inkscape:collect="always"
       xlink:href="#linearGradient258"
       id="linearGradient4805"
       x1="201.70856"
       y1="323.99634"
       x2="284.26532"
       y2="323.99634"
       gradientUnits="userSpaceOnUse" />
    <linearGradient
       x1="0"
       y1="0"
       x2="1"
       y2="0"
       gradientUnits="userSpaceOnUse"
       gradientTransform="matrix(-81.243141,11.276106,-11.276106,-81.243141,243.03453,268.83984)"
       spreadMethod="pad"
       id="linearGradient258">
      <stop
         style="stop-opacity:1;stop-color:#92193e"
         offset="0"
         id="stop252" />
      <stop
         style="stop-opacity:1;stop-color:#3b141d"
         offset="0.995074"
         id="stop254" />
      <stop
         style="stop-opacity:1;stop-color:#3b141d"
         offset="1"
         id="stop256" />
    </linearGradient>
    <clipPath
       clipPathUnits="userSpaceOnUse"
       id="clipPath290">
      <path
         d="M 0,595.28 H 841.89 V 0 H 0 Z"
         id="path288"
         inkscape:connector-curvature="0" />
    </clipPath>
    <linearGradient
       x1="0"
       y1="0"
       x2="1"
       y2="0"
       gradientUnits="userSpaceOnUse"
       gradientTransform="matrix(-68.999626,9.5767717,-9.5767717,-68.999626,253.37653,259.5563)"
       spreadMethod="pad"
       id="linearGradient280">
      <stop
         style="stop-opacity:1;stop-color:#92193e"
         offset="0"
         id="stop274" />
      <stop
         style="stop-opacity:1;stop-color:#3b141d"
         offset="0.995074"
         id="stop276" />
      <stop
         style="stop-opacity:1;stop-color:#3b141d"
         offset="1"
         id="stop278" />
    </linearGradient>
    <linearGradient
       spreadMethod="pad"
       y2="0"
       x2="1"
       y1="0"
       x1="0"
       gradientTransform="matrix(-81.243141,11.276106,-11.276106,-81.243141,243.03453,268.83984)"
       gradientUnits="userSpaceOnUse"
       id="linearGradient202"
       xlink:href="#linearGradient258"
       inkscape:collect="always" />
    <linearGradient
       inkscape:collect="always"
       xlink:href="#linearGradient258"
       id="linearGradient296"
       gradientUnits="userSpaceOnUse"
       x1="201.70856"
       y1="323.99634"
       x2="284.26532"
       y2="323.99634" />
    <linearGradient
       inkscape:collect="always"
       xlink:href="#linearGradient258"
       id="linearGradient298"
       gradientUnits="userSpaceOnUse"
       x1="201.70856"
       y1="323.99634"
       x2="284.26532"
       y2="323.99634" />
    <linearGradient
       inkscape:collect="always"
       xlink:href="#linearGradient258"
       id="linearGradient300"
       gradientUnits="userSpaceOnUse"
       x1="201.70856"
       y1="323.99634"
       x2="284.26532"
       y2="323.99634" />
  </defs>
  <sodipodi:namedview
     id="base"
     pagecolor="#ffffff"
     bordercolor="#666666"
     borderopacity="1.0"
     inkscape:pageopacity="0.0"
     inkscape:pageshadow="2"
     inkscape:zoom="3.959798"
     inkscape:cx="170.4372"
     inkscape:cy="108.00301"
     inkscape:document-units="mm"
     inkscape:current-layer="layer1"
     showgrid="false"
     inkscape:window-width="1920"
     inkscape:window-height="1053"
     inkscape:window-x="0"
     inkscape:window-y="27"
     inkscape:window-maximized="1"
     units="px" />
  <metadata
     id="metadata213">
    <rdf:RDF>
      <cc:Work
         rdf:about="">
        <dc:format>image/svg+xml</dc:format>
        <dc:type
           rdf:resource="http://purl.org/dc/dcmitype/StillImage" />
        <dc:title></dc:title>
      </cc:Work>
    </rdf:RDF>
  </metadata>
  <g
     inkscape:label="Layer 1"
     inkscape:groupmode="layer"
     id="layer1"
     transform="translate(0,-248.84497)">
    <g
       transform="matrix(0.35277777,0,0,-0.35277777,-56.738084,377.86309)"
       id="g240">
      <g
         id="g242">
        <g
           id="g248">
          <g
             id="g250">
            <path
               d="m 161.791,280.116 c -3.314,-23.883 13.36,-45.932 37.243,-49.247 v 0 c 1.719,-0.239 3.427,-0.362 5.121,-0.398 v 0 c -14.818,6.446 -24.196,22.182 -21.869,38.952 v 0 c 2.8,20.176 21.493,34.313 41.669,31.513 v 0 c 8.749,-1.214 16.358,-5.42 21.947,-11.436 v 0 c -5.463,14.472 -18.463,25.583 -34.864,27.859 v 0 c -2.036,0.283 -4.057,0.42 -6.056,0.42 v 0 c -21.449,-10e-4 -40.159,-15.816 -43.191,-37.663"
               style="fill:url(#linearGradient202);stroke:none"
               id="path260"
               inkscape:connector-curvature="0" />
          </g>
        </g>
      </g>
    </g>
    <g
       transform="matrix(0.35277777,0,0,-0.35277777,-56.738084,377.86309)"
       id="g262">
      <g
         id="g264">
        <g
           id="g270">
          <g
             id="g272">
            <path
               d="m 184.377,269.133 c -2.439,-17.573 8.753,-33.942 25.47,-38.419 v 0 c 1.379,-0.37 2.792,-0.668 4.241,-0.869 v 0 c 19.024,-2.64 36.648,10.688 39.288,29.711 v 0 c 1.246,8.969 -1.062,17.624 -5.839,24.547 v 0 c -5.356,7.762 -13.817,13.346 -23.872,14.741 v 0 c -1.617,0.225 -3.223,0.334 -4.812,0.334 v 0 c -17.098,-10e-4 -32.06,-12.64 -34.476,-30.045"
               style="fill:url(#linearGradient280);stroke:none"
               id="path282"
               inkscape:connector-curvature="0" />
          </g>
        </g>
      </g>
    </g>
    <g
       transform="matrix(0.35277777,0,0,-0.35277777,-56.738084,377.86309)"
       id="g284"
       style="fill:url(#linearGradient4805);fill-opacity:1">
      <g
         id="g286"
         clip-path="url(#clipPath290)"
         style="fill:url(#linearGradient300);fill-opacity:1">
        <g
           id="g292"
           transform="translate(202.089,324.8775)"
           style="fill:url(#linearGradient298);fill-opacity:1">
          <path
             d="m 0,0 c 0.194,1.445 0.514,3.189 1.026,5.158 0.489,1.976 1.2,4.168 2.152,6.494 0.93,2.337 2.186,4.775 3.733,7.224 1.517,2.473 3.474,4.857 5.697,7.123 2.197,2.305 4.835,4.304 7.622,6.147 1.433,0.862 2.863,1.765 4.403,2.47 0.764,0.362 1.505,0.789 2.294,1.098 l 2.363,0.952 c 0.395,0.156 0.785,0.329 1.185,0.47 l 1.21,0.388 2.422,0.774 c 1.624,0.462 3.269,0.813 4.891,1.227 1.638,0.305 3.27,0.578 4.886,0.842 1.62,0.197 3.229,0.302 4.809,0.445 0.791,0.078 1.575,0.06 2.352,0.074 0.776,10e-4 1.545,0.003 2.306,0.005 0.761,-0.012 1.515,0.015 2.255,-0.03 0.74,-0.055 1.47,-0.109 2.191,-0.162 1.439,-0.123 2.844,-0.182 4.19,-0.351 1.341,-0.194 2.637,-0.381 3.881,-0.561 0.62,-0.092 1.228,-0.182 1.821,-0.27 0.592,-0.103 1.163,-0.239 1.723,-0.352 1.118,-0.241 2.179,-0.45 3.17,-0.68 0.99,-0.236 1.924,-0.407 2.77,-0.652 0.846,-0.244 1.622,-0.468 2.324,-0.67 2.8,-0.818 4.375,-1.347 4.375,-1.347 0.077,-0.026 0.13,-0.102 0.125,-0.186 -0.007,-0.101 -0.095,-0.177 -0.196,-0.171 l -0.007,10e-4 c 0,0 -0.102,0.007 -0.29,0.021 -0.014,-0.015 -0.018,-0.036 -0.037,-0.047 l -0.012,-0.006 c 0,0 -1.3,-0.732 -3.572,-1.888 -0.578,-0.266 -1.18,-0.64 -1.836,-1.039 -0.658,-0.387 -1.37,-0.804 -2.131,-1.251 -0.773,-0.419 -1.521,-0.989 -2.34,-1.529 C 71.349,29.446 70.934,29.163 70.508,28.875 70.295,28.731 70.08,28.586 69.863,28.44 69.656,28.278 69.448,28.114 69.237,27.949 68.396,27.284 67.51,26.611 66.62,25.887 65.768,25.122 64.887,24.33 63.982,23.517 63.139,22.645 62.274,21.749 61.389,20.833 60.568,19.864 59.728,18.874 58.875,17.867 58.103,16.796 57.259,15.748 56.493,14.623 55.781,13.463 54.928,12.364 54.291,11.119 53.949,10.509 53.605,9.897 53.261,9.283 52.936,8.658 52.657,8.007 52.351,7.367 51.714,6.096 51.233,4.75 50.707,3.419 50.209,2.078 49.802,0.7 49.383,-0.666 49.042,-2.056 48.624,-3.424 48.373,-4.822 48.231,-5.517 48.09,-6.21 47.95,-6.9 c -0.109,-0.696 -0.218,-1.388 -0.325,-2.077 -0.246,-1.374 -0.34,-2.753 -0.51,-4.1 -0.48,-5.414 -0.452,-10.525 -0.173,-14.891 0.16,-2.182 0.338,-4.184 0.574,-5.95 0.219,-1.768 0.467,-3.302 0.675,-4.566 0.437,-2.525 0.79,-3.943 0.79,-3.943 0.022,-0.092 -0.031,-0.189 -0.122,-0.218 -0.096,-0.03 -0.199,0.024 -0.229,0.119 0,0 -0.456,1.407 -1.07,3.911 -0.302,1.254 -0.65,2.783 -0.972,4.552 -0.344,1.766 -0.645,3.773 -0.937,5.971 -0.258,2.201 -0.512,4.595 -0.624,7.14 -0.159,2.544 -0.115,5.236 -0.018,8.023 0.109,1.39 0.142,2.811 0.327,4.239 0.079,0.715 0.157,1.435 0.236,2.159 0.112,0.72 0.225,1.443 0.338,2.17 0.194,1.46 0.559,2.904 0.849,4.369 0.37,1.446 0.729,2.908 1.187,4.341 0.475,1.429 0.909,2.875 1.51,4.258 0.286,0.697 0.551,1.402 0.854,2.088 0.324,0.678 0.648,1.355 0.97,2.028 0.603,1.371 1.416,2.622 2.139,3.902 0.758,1.261 1.659,2.41 2.473,3.587 0.937,1.083 1.831,2.175 2.779,3.172 1,0.949 1.962,1.894 2.952,2.749 1.031,0.803 2.034,1.585 3.004,2.34 1.026,0.676 2.038,1.294 2.994,1.901 0.934,0.645 1.952,1.055 2.861,1.535 0.931,0.439 1.765,0.945 2.64,1.235 1.718,0.637 3.166,1.28 4.437,1.601 1.386,0.385 2.431,0.653 3.102,0.821 -0.772,0.067 -1.86,0.168 -3.232,0.315 -1.439,0.152 -3.175,0.377 -5.18,0.501 -2.002,0.136 -4.24,0.432 -6.696,0.508 -1.224,0.065 -2.499,0.133 -3.818,0.203 -1.316,0.083 -2.679,0.053 -4.077,0.086 -1.398,0.021 -2.832,0.06 -4.293,-0.015 -1.459,-0.078 -2.959,-0.015 -4.468,-0.141 -1.511,-0.099 -3.047,-0.199 -4.602,-0.301 -1.546,-0.183 -3.11,-0.367 -4.687,-0.554 -1.552,-0.303 -3.139,-0.545 -4.699,-0.916 l -2.325,-0.623 -1.167,-0.312 c -0.385,-0.116 -0.759,-0.262 -1.14,-0.392 l -2.273,-0.808 c -0.762,-0.26 -1.471,-0.636 -2.209,-0.948 -1.488,-0.605 -2.867,-1.404 -4.258,-2.161 -2.702,-1.634 -5.285,-3.42 -7.46,-5.525 C 11.869,22.423 9.927,20.207 8.339,17.917 6.73,15.645 5.388,13.352 4.365,11.129 2.259,6.704 1.211,2.699 0.635,-0.108 0.057,-2.93 -0.016,-4.574 -0.016,-4.574 -0.021,-4.669 -0.099,-4.746 -0.195,-4.748 -0.296,-4.749 -0.378,-4.669 -0.38,-4.569 v 0.007 c 0,0 -0.029,1.678 0.38,4.562"
             style="fill:url(#linearGradient296);fill-opacity:1;fill-rule:nonzero;stroke:none"
             id="path294"
             inkscape:connector-curvature="0" />
        </g>
      </g>
    </g>
  </g>
</svg>
